<svg xmlns="http://www.w3.org/2000/svg" viewBox="0 0 420 320" fill="none"><defs><linearGradient id="metal" x1="0" y1="0" x2="1" y2="1"><stop stop-color="#e0f1ff"/><stop offset=".3" stop-color="#678da8"/><stop offset=".48" stop-color="#17374f"/><stop offset=".7" stop-color="#8db2ce"/><stop offset="1" stop-color="#0b253b"/></linearGradient><linearGradient id="dark" x1="0" y1="0" x2="1" y2="1"><stop stop-color="#325b79"/><stop offset="1" stop-color="#061a2b"/></linearGradient><radialGradient id="shine"><stop stop-color="#7dd3ff" stop-opacity=".24"/><stop offset="1" stop-color="#1b8dda" stop-opacity="0"/></radialGradient><pattern id="grid" width="32" height="32" patternUnits="userSpaceOnUse"><path d="M32 0H0V32" stroke="#83d0f3" stroke-opacity=".14"/></pattern></defs><path d="M-60 160 235 5 484 150 183 327Z" fill="url(#grid)"/><ellipse cx="218" cy="255" rx="166" ry="30" fill="#00101d" opacity=".5"/><ellipse cx="213" cy="145" rx="215" ry="152" fill="url(#shine)"/><path d="M311 152c86 11 83 76 28 72s-68 55-16 54" stroke="#020e1c" stroke-width="11"/><path d="M311 152c86 11 83 76 28 72s-68 55-16 54" stroke="#8094b1" stroke-width="2"/><g transform="translate(72 47) rotate(12 130 110)"><rect width="264" height="191" rx="23" fill="#071628" stroke="#9babc8" stroke-width="3"/><rect x="8" y="7" width="248" height="176" rx="18" fill="url(#dark)" stroke="#26485f" stroke-width="3"/><path d="M14 22v44M14 122v42M248 22v44M248 122v42" stroke="#050f20" stroke-width="12"/><rect x="33" y="22" width="197" height="143" rx="7" fill="#071c37" stroke="#638ca8"/><path d="M43 34h94M44 42h68" stroke="#6796c5" stroke-width="3"/><circle cx="241" cy="97" r="4" fill="#61c6ed"/><rect x="48" y="57" width="30" height="28" rx="5" fill="#16639c"/><path d="m54 75 5-7 4 9 5-15 4 12" stroke="#d0e9f5" stroke-width="1.5"/><path d="M51 93h24" stroke="#8ea9c9" stroke-width="2"/><rect x="93" y="57" width="30" height="28" rx="5" fill="#774cab"/><path d="m99 75 5-7 4 9 5-15 4 12" stroke="#d0e9f5" stroke-width="1.5"/><path d="M96 93h24" stroke="#8ea9c9" stroke-width="2"/><rect x="138" y="57" width="30" height="28" rx="5" fill="#168d8b"/><path d="m144 75 5-7 4 9 5-15 4 12" stroke="#d0e9f5" stroke-width="1.5"/><path d="M141 93h24" stroke="#8ea9c9" stroke-width="2"/><rect x="183" y="57" width="30" height="28" rx="5" fill="#b98131"/><path d="m189 75 5-7 4 9 5-15 4 12" stroke="#d0e9f5" stroke-width="1.5"/><path d="M186 93h24" stroke="#8ea9c9" stroke-width="2"/><rect x="48" y="106" width="30" height="28" rx="5" fill="#16639c"/><path d="m54 124 5-7 4 9 5-15 4 12" stroke="#d0e9f5" stroke-width="1.5"/><path d="M51 142h24" stroke="#8ea9c9" stroke-width="2"/><rect x="93" y="106" width="30" height="28" rx="5" fill="#774cab"/><path d="m99 124 5-7 4 9 5-15 4 12" stroke="#d0e9f5" stroke-width="1.5"/><path d="M96 142h24" stroke="#8ea9c9" stroke-width="2"/><rect x="138" y="106" width="30" height="28" rx="5" fill="#168d8b"/><path d="m144 124 5-7 4 9 5-15 4 12" stroke="#d0e9f5" stroke-width="1.5"/><path d="M141 142h24" stroke="#8ea9c9" stroke-width="2"/><rect x="183" y="106" width="30" height="28" rx="5" fill="#b98131"/><path d="m189 124 5-7 4 9 5-15 4 12" stroke="#d0e9f5" stroke-width="1.5"/><path d="M186 142h24" stroke="#8ea9c9" stroke-width="2"/></g><g transform="translate(305 224) rotate(17)"><path d="M0 0h60l-6 34H7Z" fill="#132139" stroke="#8696aa" stroke-width="2"/><path d="M8 9h44l-3 15H12Z" fill="#0d1424"/><path d="M14 12v7" stroke="#daa450" stroke-width="2"/><path d="M18 12v7" stroke="#daa450" stroke-width="2"/><path d="M22 12v7" stroke="#daa450" stroke-width="2"/><path d="M26 12v7" stroke="#daa450" stroke-width="2"/><path d="M30 12v7" stroke="#daa450" stroke-width="2"/><path d="M34 12v7" stroke="#daa450" stroke-width="2"/><path d="M38 12v7" stroke="#daa450" stroke-width="2"/><path d="M42 12v7" stroke="#daa450" stroke-width="2"/></g></svg>