<svg xmlns="http://www.w3.org/2000/svg" viewBox="0 0 1000 600" fill="none"><defs><linearGradient id="body" x1="300" y1="90" x2="540" y2="470" gradientUnits="userSpaceOnUse"><stop stop-color="#78c5ec" stop-opacity=".35"/><stop offset=".48" stop-color="#082e4f" stop-opacity=".65"/><stop offset="1" stop-color="#010f21" stop-opacity=".96"/></linearGradient><linearGradient id="glass"><stop stop-color="#001426"/><stop offset=".5" stop-color="#123c57" stop-opacity=".9"/><stop offset="1" stop-color="#07182e"/></linearGradient><linearGradient id="rim"><stop stop-color="#d5f3ff"/><stop offset=".4" stop-color="#386784"/><stop offset=".7" stop-color="#afd8f0"/><stop offset="1" stop-color="#14334e"/></linearGradient><filter id="glow"><feGaussianBlur stdDeviation="2"/></filter><filter id="shadow"><feGaussianBlur stdDeviation="18"/></filter></defs><ellipse cx="501" cy="480" rx="370" ry="61" fill="#000c1a" opacity=".9" filter="url(#shadow)"/><ellipse cx="528" cy="490" rx="290" ry="26" fill="#008eee" opacity=".17" filter="url(#shadow)"/><g stroke-linejoin="round" stroke-linecap="round"><path d="M125 368 165 299 361 235 472 110Q501 81 555 84L757 110Q814 123 841 177L892 280 882 349 829 375 733 409 518 504 407 514 179 451Q135 437 125 413Z" fill="url(#body)" stroke="#74bdea" stroke-width="2.5"/><path d="m167 299 194-64 192 63-159 112Z" fill="#0a2940" fill-opacity=".8" stroke="#7bbfea" stroke-width="2"/><path d="m366 235 115-121q19-17 44-16l137 58-106 135Z" fill="url(#glass)" stroke="#96daf9" stroke-width="2"/><path d="m571 295 107-136 87-28 45 64-27 18-72 40Z" fill="url(#glass)" stroke="#82bfdf" stroke-width="2"/><path d="m704 248 52-111m-78 22-3 20m110-43 42 61 25-17-33-44Z" fill="#0b2237" stroke="#64a9d5"/><path d="m558 311 119-52 15 101-149 75 1-78M703 249l111-40 36 66-29 51-119 52Z" stroke="#69b0dc" stroke-width="1.8"/><path d="m125 368 265 108 492-162M154 355l250 79 461-167M416 502l6-73 138-128M692 257l-17-95M190 287l206 92M227 275l199 77M508 99l170 62 118-32M543 92l135 52 76-29M151 415l248 88 454-174" stroke="#429bd3" stroke-width="1.3"/><path d="m153 370 214 83 1 39-204-74Z" fill="#010f1e" stroke="#4f8fba" stroke-width="2"/><path d="m166 378 -1 38" stroke="#4f83a2" stroke-width="3"/><path d="m191 387.7 -1 38" stroke="#4f83a2" stroke-width="3"/><path d="m216 397.4 -1 38" stroke="#4f83a2" stroke-width="3"/><path d="m241 407.1 -1 38" stroke="#4f83a2" stroke-width="3"/><path d="m266 416.8 -1 38" stroke="#4f83a2" stroke-width="3"/><path d="m291 426.5 -1 38" stroke="#4f83a2" stroke-width="3"/><path d="m316 436.2 -1 38" stroke="#4f83a2" stroke-width="3"/><path d="m341 445.9 -1 38" stroke="#4f83a2" stroke-width="3"/><path d="m160 389 196 74m-193-60 196 72M153 348l70 21 13 21-78-22ZM324 411l65 19 40-25-53-13Z" fill="#8edbff" stroke="#d8f5ff" stroke-width="2"/><path d="m158 354 70 22m104 42 54 18 31-23" stroke="#b0edff" stroke-width="7" filter="url(#glow)"/><path d="m138 403 16 34 58 18-8-15-45-17M321 479l61 24 31-19M804 209l47-11 11 17-38 19Z" fill="#0b2a42" stroke="#79b8dc"/><path d="m821 214 26-8" stroke="#ff985d" stroke-width="5"/><g transform="rotate(15 806 326)"><ellipse cx="806" cy="326" rx="51" ry="79" fill="#03101e" stroke="#376684" stroke-width="3"/><ellipse cx="806" cy="326" rx="42" ry="70" fill="#071c2d" stroke="#97c6e2" stroke-width="3"/><ellipse cx="806" cy="326" rx="32" ry="58" fill="#020f1d" stroke="#315b76" stroke-width="3"/><path d="M801 321 836.0 326.0 812 331Z" fill="url(#rim)" stroke="#6898b4" stroke-width="1"/><path d="M801 321 830.3 359.5 812 331Z" fill="url(#rim)" stroke="#6898b4" stroke-width="1"/><path d="M801 321 815.3 380.2 812 331Z" fill="url(#rim)" stroke="#6898b4" stroke-width="1"/><path d="M801 321 796.7 380.2 812 331Z" fill="url(#rim)" stroke="#6898b4" stroke-width="1"/><path d="M801 321 781.7 359.5 812 331Z" fill="url(#rim)" stroke="#6898b4" stroke-width="1"/><path d="M801 321 776.0 326.0 812 331Z" fill="url(#rim)" stroke="#6898b4" stroke-width="1"/><path d="M801 321 781.7 292.5 812 331Z" fill="url(#rim)" stroke="#6898b4" stroke-width="1"/><path d="M801 321 796.7 271.8 812 331Z" fill="url(#rim)" stroke="#6898b4" stroke-width="1"/><path d="M801 321 815.3 271.8 812 331Z" fill="url(#rim)" stroke="#6898b4" stroke-width="1"/><path d="M801 321 830.3 292.5 812 331Z" fill="url(#rim)" stroke="#6898b4" stroke-width="1"/><ellipse cx="806" cy="326" rx="11" ry="16" fill="#326585" stroke="#c7ecff" stroke-width="2"/></g><g transform="rotate(15 486 444)"><ellipse cx="486" cy="444" rx="71" ry="101" fill="#03101e" stroke="#376684" stroke-width="3"/><ellipse cx="486" cy="444" rx="62" ry="92" fill="#071c2d" stroke="#97c6e2" stroke-width="3"/><ellipse cx="486" cy="444" rx="52" ry="80" fill="#020f1d" stroke="#315b76" stroke-width="3"/><path d="M481 439 536.0 444.0 492 449Z" fill="url(#rim)" stroke="#6898b4" stroke-width="1"/><path d="M481 439 526.5 490.4 492 449Z" fill="url(#rim)" stroke="#6898b4" stroke-width="1"/><path d="M481 439 501.5 519.1 492 449Z" fill="url(#rim)" stroke="#6898b4" stroke-width="1"/><path d="M481 439 470.5 519.1 492 449Z" fill="url(#rim)" stroke="#6898b4" stroke-width="1"/><path d="M481 439 445.5 490.4 492 449Z" fill="url(#rim)" stroke="#6898b4" stroke-width="1"/><path d="M481 439 436.0 444.0 492 449Z" fill="url(#rim)" stroke="#6898b4" stroke-width="1"/><path d="M481 439 445.5 397.6 492 449Z" fill="url(#rim)" stroke="#6898b4" stroke-width="1"/><path d="M481 439 470.5 368.9 492 449Z" fill="url(#rim)" stroke="#6898b4" stroke-width="1"/><path d="M481 439 501.5 368.9 492 449Z" fill="url(#rim)" stroke="#6898b4" stroke-width="1"/><path d="M481 439 526.5 397.6 492 449Z" fill="url(#rim)" stroke="#6898b4" stroke-width="1"/><ellipse cx="486" cy="444" rx="11" ry="16" fill="#326585" stroke="#c7ecff" stroke-width="2"/></g><path d="M407 484q-8-75 32-127 34-36 70-14 38 22 48 65M753 344q-7-80 25-103 36-26 63 20" stroke="#93caea" stroke-width="3"/><path d="m529 469 215-99M537 479l203-93" stroke="#3cb5fa" stroke-width="3"/><g stroke="#53baff" stroke-width="1.5" fill="#0b2b46" fill-opacity=".7"><path d="m224 312 88-31 77 27-81 41Z"/><path d="m225 312 3 31 79 31 2-25M309 349l80-41-2 27-80 39"/><path d="m588 315 70-29 8 48-73 35ZM715 271l72-29 13 50-79 34Z"/><path d="m255 300 22 8 53-20m-60 25 17 7 54-26m-55 31 14 6 54-27" stroke-width="6"/><circle cx="345" cy="344" r="15"/><circle cx="345" cy="344" r="6"/><path d="m563 378 81-38 60 4 47-24M604 306l-6-32 60-26"/></g><g stroke="#ff9a35" stroke-width="4" fill="none"><path d="m265 331 43 15 91-41 30 9-5 26 143-60 23 78 66-31 14 54 58-29 8-56 55-28-8-53 32-21-15-50"/><path d="m627 365-29 51-43 19M442 319l-7-51-53-18M270 333l-5 58 108 40 30-17"/></g><g fill="#90e0ff" stroke="#1d76a9" stroke-width="2"><circle cx="270" cy="333" r="5"/><circle cx="567" cy="280" r="5"/><circle cx="656" cy="327" r="5"/><circle cx="736" cy="296" r="5"/></g><path d="m384 237 162 53m-154-56 160 43" stroke="#5a9bbf" stroke-width="2"/><path d="m356 224 29-22 32 9-24 22Z" fill="url(#body)" stroke="#a8ddf7" stroke-width="2"/><path d="m620 275 21-9m94-37 18-7" stroke="#c7eaff" stroke-width="4"/></g></svg>