<svg xmlns="http://www.w3.org/2000/svg" viewBox="0 0 1600 600" fill="none"><defs><linearGradient id="bg" x2="0" y2="1"><stop stop-color="#03172a"/><stop offset=".6" stop-color="#0b304b"/><stop offset="1" stop-color="#031727"/></linearGradient><radialGradient id="light"><stop stop-color="#358ccd" stop-opacity=".38"/><stop offset="1" stop-color="#063455" stop-opacity="0"/></radialGradient><filter id="blur"><feGaussianBlur stdDeviation="4"/></filter></defs><path fill="url(#bg)" d="M0 0h1600v600H0z"/><ellipse cx="1100" cy="230" rx="590" ry="410" fill="url(#light)"/><path d="M200 0v385" stroke="#00111e" stroke-width="22"/><path d="m203 0v385" stroke="#1d5477" stroke-opacity=".4" stroke-width="5"/><path d="M340 0v385" stroke="#00111e" stroke-width="22"/><path d="m343 0v385" stroke="#1d5477" stroke-opacity=".4" stroke-width="5"/><path d="M480 0v385" stroke="#00111e" stroke-width="22"/><path d="m483 0v385" stroke="#1d5477" stroke-opacity=".4" stroke-width="5"/><path d="M620 0v385" stroke="#00111e" stroke-width="22"/><path d="m623 0v385" stroke="#1d5477" stroke-opacity=".4" stroke-width="5"/><path d="M760 0v385" stroke="#00111e" stroke-width="22"/><path d="m763 0v385" stroke="#1d5477" stroke-opacity=".4" stroke-width="5"/><path d="M900 0v385" stroke="#00111e" stroke-width="22"/><path d="m903 0v385" stroke="#1d5477" stroke-opacity=".4" stroke-width="5"/><path d="M1040 0v385" stroke="#00111e" stroke-width="22"/><path d="m1043 0v385" stroke="#1d5477" stroke-opacity=".4" stroke-width="5"/><path d="M1180 0v385" stroke="#00111e" stroke-width="22"/><path d="m1183 0v385" stroke="#1d5477" stroke-opacity=".4" stroke-width="5"/><path d="M1320 0v385" stroke="#00111e" stroke-width="22"/><path d="m1323 0v385" stroke="#1d5477" stroke-opacity=".4" stroke-width="5"/><path d="M1460 0v385" stroke="#00111e" stroke-width="22"/><path d="m1463 0v385" stroke="#1d5477" stroke-opacity=".4" stroke-width="5"/><path d="M1600 0v385" stroke="#00111e" stroke-width="22"/><path d="m1603 0v385" stroke="#1d5477" stroke-opacity=".4" stroke-width="5"/><path d="M0 96 1600 25M0 184l1600-55M0 267l1600-27M0 390h1600" stroke="#2c5973" stroke-opacity=".3" stroke-width="6"/><path d="M640 76l67-16" stroke="#52b5ff" stroke-width="9" filter="url(#blur)"/><path d="M640 76l67-16" stroke="#99d9ff" stroke-width="4"/><path d="M775 76l67-16" stroke="#52b5ff" stroke-width="9" filter="url(#blur)"/><path d="M775 76l67-16" stroke="#99d9ff" stroke-width="4"/><path d="M910 76l67-16" stroke="#52b5ff" stroke-width="9" filter="url(#blur)"/><path d="M910 76l67-16" stroke="#99d9ff" stroke-width="4"/><path d="M1045 76l67-16" stroke="#52b5ff" stroke-width="9" filter="url(#blur)"/><path d="M1045 76l67-16" stroke="#99d9ff" stroke-width="4"/><path d="M1180 76l67-16" stroke="#52b5ff" stroke-width="9" filter="url(#blur)"/><path d="M1180 76l67-16" stroke="#99d9ff" stroke-width="4"/><path d="M1315 76l67-16" stroke="#52b5ff" stroke-width="9" filter="url(#blur)"/><path d="M1315 76l67-16" stroke="#99d9ff" stroke-width="4"/><path d="M1450 76l67-16" stroke="#52b5ff" stroke-width="9" filter="url(#blur)"/><path d="M1450 76l67-16" stroke="#99d9ff" stroke-width="4"/><path d="M1585 76l67-16" stroke="#52b5ff" stroke-width="9" filter="url(#blur)"/><path d="M1585 76l67-16" stroke="#99d9ff" stroke-width="4"/><path d="M800 325 -1440 600" stroke="#49a3d9" stroke-opacity=".23"/><path d="M800 325 -1260 600" stroke="#49a3d9" stroke-opacity=".23"/><path d="M800 325 -1080 600" stroke="#49a3d9" stroke-opacity=".23"/><path d="M800 325 -900 600" stroke="#49a3d9" stroke-opacity=".23"/><path d="M800 325 -720 600" stroke="#49a3d9" stroke-opacity=".23"/><path d="M800 325 -540 600" stroke="#49a3d9" stroke-opacity=".23"/><path d="M800 325 -360 600" stroke="#49a3d9" stroke-opacity=".23"/><path d="M800 325 -180 600" stroke="#49a3d9" stroke-opacity=".23"/><path d="M800 325 0 600" stroke="#49a3d9" stroke-opacity=".23"/><path d="M800 325 180 600" stroke="#49a3d9" stroke-opacity=".23"/><path d="M800 325 360 600" stroke="#49a3d9" stroke-opacity=".23"/><path d="M800 325 540 600" stroke="#49a3d9" stroke-opacity=".23"/><path d="M800 325 720 600" stroke="#49a3d9" stroke-opacity=".23"/><path d="M800 325 900 600" stroke="#49a3d9" stroke-opacity=".23"/><path d="M800 325 1080 600" stroke="#49a3d9" stroke-opacity=".23"/><path d="M800 325 1260 600" stroke="#49a3d9" stroke-opacity=".23"/><path d="M800 325 1440 600" stroke="#49a3d9" stroke-opacity=".23"/><path d="M800 325 1620 600" stroke="#49a3d9" stroke-opacity=".23"/><path d="M800 325 1800 600" stroke="#49a3d9" stroke-opacity=".23"/><path d="M800 325 1980 600" stroke="#49a3d9" stroke-opacity=".23"/><path d="M800 325 2160 600" stroke="#49a3d9" stroke-opacity=".23"/><path d="M800 325 2340 600" stroke="#49a3d9" stroke-opacity=".23"/><path d="M800 325 2520 600" stroke="#49a3d9" stroke-opacity=".23"/><path d="M800 325 2700 600" stroke="#49a3d9" stroke-opacity=".23"/><path d="M800 325 2880 600" stroke="#49a3d9" stroke-opacity=".23"/><path d="M0 358h1600" stroke="#3c8aba" stroke-opacity=".23"/><path d="M0 377h1600" stroke="#3c8aba" stroke-opacity=".23"/><path d="M0 403h1600" stroke="#3c8aba" stroke-opacity=".23"/><path d="M0 439h1600" stroke="#3c8aba" stroke-opacity=".23"/><path d="M0 486h1600" stroke="#3c8aba" stroke-opacity=".23"/><path d="M0 550h1600" stroke="#3c8aba" stroke-opacity=".23"/><path d="M0 599h1600" stroke="#3c8aba" stroke-opacity=".23"/><path d="m789 99 41 15" stroke="#ffac53" stroke-width="6" filter="url(#blur)"/><path d="m789 99 41 15" stroke="#ffbe79" stroke-width="3"/><path d="M1000 390v200M1240 390v180" stroke="#3f9edf" opacity=".1" stroke-width="26" filter="url(#blur)"/></svg>